<mxfile host="Electron" agent="Mozilla/5.0 (X11; Linux x86_64) AppleWebKit/537.36 (KHTML, like Gecko) draw.io/24.7.8 Chrome/128.0.6613.36 Electron/32.0.1 Safari/537.36" version="24.7.8">
  <diagram name="PÃ¡gina-1" id="Ts_K7aD5UrU6fJigA5s9">
    <mxGraphModel dx="741" dy="474" grid="1" gridSize="10" guides="1" tooltips="1" connect="1" arrows="1" fold="1" page="1" pageScale="1" pageWidth="1100" pageHeight="850" math="0" shadow="0">
      <root>
        <mxCell id="0" />
        <mxCell id="1" parent="0" />
        <mxCell id="L8VaGgbviveHQjt0iXF9-3" value="&lt;font style=&quot;font-size: 20px;&quot;&gt;Sincrono&lt;/font&gt;" style="text;html=1;align=center;verticalAlign=middle;whiteSpace=wrap;rounded=1;fillColor=none;strokeColor=default;strokeWidth=3;shadow=1;glass=0;" vertex="1" parent="1">
          <mxGeometry x="43" y="82" width="220" height="30" as="geometry" />
        </mxCell>
        <mxCell id="L8VaGgbviveHQjt0iXF9-5" value="&lt;font style=&quot;font-size: 15px;&quot;&gt;Tareas continuas&lt;/font&gt;&lt;div style=&quot;font-size: 15px;&quot;&gt;&lt;font style=&quot;font-size: 15px;&quot;&gt;flujo constante&lt;/font&gt;&lt;/div&gt;" style="text;html=1;align=center;verticalAlign=middle;whiteSpace=wrap;rounded=0;" vertex="1" parent="1">
          <mxGeometry x="68" y="128" width="170" height="50" as="geometry" />
        </mxCell>
        <mxCell id="L8VaGgbviveHQjt0iXF9-6" value="&lt;font style=&quot;font-size: 20px;&quot;&gt;Asincrono&lt;/font&gt;" style="text;html=1;align=center;verticalAlign=middle;whiteSpace=wrap;rounded=1;fillColor=none;strokeColor=default;strokeWidth=3;shadow=1;glass=0;" vertex="1" parent="1">
          <mxGeometry x="340" y="82" width="220" height="30" as="geometry" />
        </mxCell>
        <mxCell id="L8VaGgbviveHQjt0iXF9-7" value="&lt;span style=&quot;font-size: 15px;&quot;&gt;Tareas paralelas&lt;/span&gt;&lt;div&gt;&lt;span style=&quot;font-size: 15px;&quot;&gt;o concurrentes&lt;/span&gt;&lt;/div&gt;" style="text;html=1;align=center;verticalAlign=middle;whiteSpace=wrap;rounded=0;" vertex="1" parent="1">
          <mxGeometry x="365" y="128" width="170" height="50" as="geometry" />
        </mxCell>
        <mxCell id="L8VaGgbviveHQjt0iXF9-8" value="&lt;font style=&quot;font-size: 20px;&quot;&gt;continuo&lt;/font&gt;" style="text;html=1;align=center;verticalAlign=middle;whiteSpace=wrap;rounded=1;strokeColor=default;strokeWidth=3;shadow=1;" vertex="1" parent="1">
          <mxGeometry x="130" y="227" width="180" height="30" as="geometry" />
        </mxCell>
        <mxCell id="L8VaGgbviveHQjt0iXF9-9" value="" style="shape=flexArrow;endArrow=classic;html=1;rounded=1;strokeWidth=3;shadow=1;fillColor=#f5f5f5;strokeColor=none;" edge="1" parent="1">
          <mxGeometry width="50" height="50" relative="1" as="geometry">
            <mxPoint x="320" y="241.5" as="sourcePoint" />
            <mxPoint x="440" y="242" as="targetPoint" />
          </mxGeometry>
        </mxCell>
        <mxCell id="L8VaGgbviveHQjt0iXF9-10" value="&lt;font style=&quot;font-size: 20px;&quot;&gt;subrutina&lt;/font&gt;" style="text;html=1;align=center;verticalAlign=middle;whiteSpace=wrap;rounded=1;strokeColor=default;strokeWidth=3;shadow=1;" vertex="1" parent="1">
          <mxGeometry x="130" y="331" width="180" height="30" as="geometry" />
        </mxCell>
        <mxCell id="L8VaGgbviveHQjt0iXF9-12" value="" style="endArrow=none;html=1;rounded=1;shadow=1;fillColor=#f5f5f5;strokeColor=#ffffff;strokeWidth=13;curved=0;" edge="1" parent="1">
          <mxGeometry width="50" height="50" relative="1" as="geometry">
            <mxPoint x="322" y="336.75" as="sourcePoint" />
            <mxPoint x="362" y="337.25" as="targetPoint" />
          </mxGeometry>
        </mxCell>
        <mxCell id="L8VaGgbviveHQjt0iXF9-14" value="" style="endArrow=none;html=1;rounded=0;shadow=1;fillColor=#f5f5f5;strokeColor=#ffffff;strokeWidth=13;" edge="1" parent="1">
          <mxGeometry width="50" height="50" relative="1" as="geometry">
            <mxPoint x="371" y="360" as="sourcePoint" />
            <mxPoint x="421" y="360" as="targetPoint" />
          </mxGeometry>
        </mxCell>
        <mxCell id="L8VaGgbviveHQjt0iXF9-16" value="" style="endArrow=none;html=1;rounded=0;shadow=1;fillColor=#f5f5f5;strokeColor=#ffffff;strokeWidth=13;jumpSize=6;" edge="1" parent="1">
          <mxGeometry width="50" height="50" relative="1" as="geometry">
            <mxPoint x="425" y="366.5" as="sourcePoint" />
            <mxPoint x="425" y="331" as="targetPoint" />
          </mxGeometry>
        </mxCell>
        <mxCell id="L8VaGgbviveHQjt0iXF9-17" value="" style="endArrow=none;html=1;rounded=0;shadow=1;fillColor=#f5f5f5;strokeColor=#ffffff;strokeWidth=13;jumpSize=6;" edge="1" parent="1">
          <mxGeometry width="50" height="50" relative="1" as="geometry">
            <mxPoint x="367" y="366.5" as="sourcePoint" />
            <mxPoint x="367" y="331" as="targetPoint" />
          </mxGeometry>
        </mxCell>
        <mxCell id="L8VaGgbviveHQjt0iXF9-18" value="" style="shape=flexArrow;endArrow=classic;html=1;rounded=1;strokeWidth=3;shadow=1;fillColor=#f5f5f5;strokeColor=none;" edge="1" parent="1">
          <mxGeometry width="50" height="50" relative="1" as="geometry">
            <mxPoint x="422" y="337" as="sourcePoint" />
            <mxPoint x="472" y="337" as="targetPoint" />
          </mxGeometry>
        </mxCell>
        <mxCell id="L8VaGgbviveHQjt0iXF9-19" value="&lt;font style=&quot;font-size: 20px;&quot;&gt;concurrencia&lt;/font&gt;" style="text;html=1;align=center;verticalAlign=middle;whiteSpace=wrap;rounded=1;strokeColor=default;strokeWidth=3;shadow=1;" vertex="1" parent="1">
          <mxGeometry x="130" y="436" width="180" height="30" as="geometry" />
        </mxCell>
        <mxCell id="L8VaGgbviveHQjt0iXF9-20" value="" style="shape=flexArrow;endArrow=classic;html=1;rounded=1;strokeWidth=3;shadow=1;fillColor=#f5f5f5;strokeColor=none;" edge="1" parent="1">
          <mxGeometry width="50" height="50" relative="1" as="geometry">
            <mxPoint x="320" y="433" as="sourcePoint" />
            <mxPoint x="380" y="433" as="targetPoint" />
          </mxGeometry>
        </mxCell>
        <mxCell id="L8VaGgbviveHQjt0iXF9-21" value="" style="shape=flexArrow;endArrow=classic;html=1;rounded=1;strokeWidth=3;shadow=1;fillColor=#f5f5f5;strokeColor=none;" edge="1" parent="1">
          <mxGeometry width="50" height="50" relative="1" as="geometry">
            <mxPoint x="320" y="473" as="sourcePoint" />
            <mxPoint x="440" y="473" as="targetPoint" />
          </mxGeometry>
        </mxCell>
        <mxCell id="L8VaGgbviveHQjt0iXF9-22" value="" style="shape=flexArrow;endArrow=classic;html=1;rounded=1;strokeWidth=3;shadow=1;fillColor=#f5f5f5;strokeColor=none;" edge="1" parent="1">
          <mxGeometry width="50" height="50" relative="1" as="geometry">
            <mxPoint x="440" y="433" as="sourcePoint" />
            <mxPoint x="500" y="433" as="targetPoint" />
          </mxGeometry>
        </mxCell>
        <mxCell id="L8VaGgbviveHQjt0iXF9-23" value="&lt;font style=&quot;font-size: 20px;&quot;&gt;paralelismo&lt;/font&gt;" style="text;html=1;align=center;verticalAlign=middle;whiteSpace=wrap;rounded=1;strokeColor=default;strokeWidth=3;shadow=1;" vertex="1" parent="1">
          <mxGeometry x="130" y="544" width="180" height="30" as="geometry" />
        </mxCell>
        <mxCell id="L8VaGgbviveHQjt0iXF9-24" value="" style="shape=flexArrow;endArrow=classic;html=1;rounded=1;strokeWidth=3;shadow=1;fillColor=#f5f5f5;strokeColor=none;" edge="1" parent="1">
          <mxGeometry width="50" height="50" relative="1" as="geometry">
            <mxPoint x="320" y="540" as="sourcePoint" />
            <mxPoint x="440" y="540.5" as="targetPoint" />
          </mxGeometry>
        </mxCell>
        <mxCell id="L8VaGgbviveHQjt0iXF9-25" value="" style="shape=flexArrow;endArrow=classic;html=1;rounded=1;strokeWidth=3;shadow=1;fillColor=#f5f5f5;strokeColor=none;" edge="1" parent="1">
          <mxGeometry width="50" height="50" relative="1" as="geometry">
            <mxPoint x="320" y="580" as="sourcePoint" />
            <mxPoint x="440" y="580.5" as="targetPoint" />
          </mxGeometry>
        </mxCell>
      </root>
    </mxGraphModel>
  </diagram>
</mxfile>
